<?xml version="1.0" encoding="UTF-8" standalone="no"?><!DOCTYPE svg PUBLIC "-//W3C//DTD SVG 1.1//EN" "http://www.w3.org/Graphics/SVG/1.1/DTD/svg11.dtd"><svg width="100%" height="100%" viewBox="0 0 540 540" version="1.1" xmlns="http://www.w3.org/2000/svg" xmlns:xlink="http://www.w3.org/1999/xlink" xml:space="preserve" xmlns:serif="http://www.serif.com/" style="fill-rule:evenodd;clip-rule:evenodd;stroke-linejoin:round;stroke-miterlimit:2;"><path d="M269.638,451.435c37.862,-0 68.742,-137.686 69.944,-95.107c0.017,0.601 0.029,1.238 0.033,1.913c3.635,-8.494 6.975,-16.561 9.982,-23.67c10.641,-25.156 17.115,-38.322 17.745,-15.99c-1.203,2.735 -2.442,5.552 -3.715,8.436c1.291,-2.796 2.535,-5.471 3.726,-7.997c-0.004,-0.147 -0.007,-0.294 -0.011,-0.439c13.341,-30.322 22.328,-50.435 25.284,-37.895c23.458,-55.758 38.052,-93.422 39.28,-49.897c26.886,-61.107 43.128,-97.251 43.74,-41.83c39.692,-86.183 63.63,-141.725 63.63,-62.008c0,179.087 -120.821,324.484 -269.638,324.484Zm0,-0c-148.817,-0 -269.638,-145.397 -269.638,-324.484c0,-79.717 23.938,-24.175 63.63,62.008c0.613,-55.421 16.855,-19.277 43.74,41.83c1.228,-43.525 15.822,-5.861 39.28,49.897c2.956,-12.54 11.944,7.573 25.284,37.895c0.63,-22.332 7.104,-9.166 17.745,15.99c3.007,7.109 6.347,15.176 9.982,23.67c0.004,-0.675 0.016,-1.312 0.033,-1.913c1.202,-42.579 32.082,95.107 69.944,95.107Z"/></svg>