<?xml version="1.0" encoding="UTF-8" standalone="no"?><!DOCTYPE svg PUBLIC "-//W3C//DTD SVG 1.1//EN" "http://www.w3.org/Graphics/SVG/1.1/DTD/svg11.dtd"><svg width="100%" height="100%" viewBox="0 0 540 540" version="1.1" xmlns="http://www.w3.org/2000/svg" xmlns:xlink="http://www.w3.org/1999/xlink" xml:space="preserve" xmlns:serif="http://www.serif.com/" style="fill-rule:evenodd;clip-rule:evenodd;stroke-linejoin:round;stroke-miterlimit:2;"><clipPath id="_clip1"><rect id="cidadania-svg.svg" x="0" y="116.327" width="540" height="307.347"/></clipPath><g clip-path="url(#_clip1)"><path d="M269.794,256.531c-38.69,-0 -70.102,-31.412 -70.102,-70.102c0,-38.691 31.412,-70.102 70.102,-70.102c38.69,-0 70.102,31.411 70.102,70.102c0,38.69 -31.412,70.102 -70.102,70.102Zm109.898,166.836l-219.796,0c0,-87.687 49.243,-158.877 109.898,-158.877c60.654,-0 109.898,71.19 109.898,158.877Zm-303.979,-246.275c26.654,-0 48.295,21.64 48.295,48.295c-0,26.656 -21.641,48.296 -48.295,48.296c-26.656,0 -48.297,-21.64 -48.297,-48.296c0,-26.655 21.641,-48.295 48.297,-48.295Zm-75.713,211.53c-0,-60.41 33.926,-109.455 75.713,-109.455c41.787,-0 75.712,49.045 75.712,109.455l-151.425,0Zm463.876,-211.53c26.655,-0 48.295,21.64 48.295,48.295c0,26.656 -21.64,48.296 -48.295,48.296c-26.656,0 -48.296,-21.64 -48.296,-48.296c-0,-26.655 21.64,-48.295 48.296,-48.295Zm75.713,211.53l-151.426,0c0,-60.41 33.926,-109.455 75.713,-109.455c41.787,-0 75.713,49.045 75.713,109.455Z"/></g></svg>