<?xml version="1.0" encoding="UTF-8" standalone="no"?><!DOCTYPE svg PUBLIC "-//W3C//DTD SVG 1.1//EN" "http://www.w3.org/Graphics/SVG/1.1/DTD/svg11.dtd"><svg width="100%" height="100%" viewBox="0 0 540 540" version="1.1" xmlns="http://www.w3.org/2000/svg" xmlns:xlink="http://www.w3.org/1999/xlink" xml:space="preserve" xmlns:serif="http://www.serif.com/" style="fill-rule:evenodd;clip-rule:evenodd;stroke-linejoin:round;stroke-miterlimit:2;"><clipPath id="_clip1"><rect id="mdb-svg.svg" x="101.232" y="0" width="337.535" height="540"/></clipPath><g clip-path="url(#_clip1)"><g><path d="M190.606,539.291c5.275,2.804 10.839,-3.269 7.61,-8.295c-17.529,-27.281 -34.128,-73.188 -7.682,-132.31c44.102,-98.592 70.938,-149.656 70.938,-149.656c-0,0 14.273,59.591 52.966,112.576c37.24,50.993 57.623,115.127 24.763,168.555c-3.084,5.014 2.354,10.93 7.594,8.249c40.677,-20.808 86.3,-62.546 91.447,-145.603c1.898,-25.381 -0.948,-60.913 -15.181,-105.752c-18.301,-56.828 -40.799,-83.346 -53.817,-94.734c-3.894,-3.406 -9.949,-0.387 -9.63,4.777c3.793,61.318 -19.275,76.878 -32.405,41.811c-5.244,-14.007 -8.302,-38.232 -8.302,-67.735c-0,-49.116 -14.25,-99.677 -45.667,-140.763c-8.169,-10.684 -17.729,-20.668 -28.696,-29.182c-3.971,-3.083 -9.727,0.016 -9.363,5.03c2.412,33.296 0.227,128.722 -83.492,242.726c-75.908,105.751 -46.494,186.967 -36.056,208.964c19.955,42.14 47.79,66.888 74.973,81.342Z" style="fill-rule:nonzero;"/></g></g></svg>