<?xml version="1.0" encoding="UTF-8" standalone="no"?><!DOCTYPE svg PUBLIC "-//W3C//DTD SVG 1.1//EN" "http://www.w3.org/Graphics/SVG/1.1/DTD/svg11.dtd"><svg width="100%" height="100%" viewBox="0 0 540 540" version="1.1" xmlns="http://www.w3.org/2000/svg" xmlns:xlink="http://www.w3.org/1999/xlink" xml:space="preserve" xmlns:serif="http://www.serif.com/" style="fill-rule:evenodd;clip-rule:evenodd;stroke-linejoin:round;stroke-miterlimit:2;"><g><path d="M268.674,254.317c1.659,1.223 3.263,2.519 4.808,3.884c-1.674,-1.216 -3.278,-2.513 -4.808,-3.884Zm17.952,-29.555c1.338,0.552 2.659,1.133 3.963,1.747c-1.384,-0.453 -2.709,-1.041 -3.963,-1.747Zm11.714,157.94c0.981,-0.699 2.006,-1.339 3.074,-1.918c-1.012,0.659 -2.036,1.298 -3.074,1.918Z" style="fill-opacity:0.18;"/><path d="M300.585,181.592c1.072,0.156 2.119,0.389 3.136,0.694c-1.041,-0.244 -2.085,-0.475 -3.136,-0.694Zm-9.996,44.917c-1.384,-0.453 -2.709,-1.041 -3.963,-1.747c1.338,0.552 2.659,1.133 3.963,1.747Zm36.922,-36.191c-0.333,-0.142 -0.665,-0.29 -0.994,-0.44c0.333,0.145 0.663,0.292 0.994,0.44Zm-58.837,63.999c1.659,1.223 3.263,2.519 4.808,3.884c-1.674,-1.216 -3.278,-2.513 -4.808,-3.884Z" style="fill-opacity:0.18;"/><path d="M300.585,181.592c1.072,0.156 2.119,0.389 3.136,0.694c-1.041,-0.244 -2.085,-0.475 -3.136,-0.694Zm-9.996,44.917c-1.384,-0.453 -2.709,-1.041 -3.963,-1.747c1.338,0.552 2.659,1.133 3.963,1.747Z" style="fill-opacity:0.18;"/><path d="M142.835,270c0.131,-2.788 0.455,-5.517 0.958,-8.189c-0.185,2.77 -0.507,5.502 -0.958,8.189Zm125.839,-15.683c1.659,1.223 3.263,2.519 4.808,3.884c-1.674,-1.216 -3.278,-2.513 -4.808,-3.884Zm-0,0c1.659,1.223 3.263,2.519 4.808,3.884c-1.674,-1.216 -3.278,-2.513 -4.808,-3.884Zm21.915,-27.808c-1.384,-0.453 -2.709,-1.041 -3.963,-1.747c1.338,0.552 2.659,1.133 3.963,1.747Zm36.922,-36.191c-0.333,-0.142 -0.665,-0.29 -0.994,-0.44c0.333,0.145 0.663,0.292 0.994,0.44Zm-29.171,192.384c0.981,-0.699 2.006,-1.339 3.074,-1.918c-1.012,0.659 -2.036,1.298 -3.074,1.918Zm0,-0c0.981,-0.699 2.006,-1.339 3.074,-1.918c-1.012,0.659 -2.036,1.298 -3.074,1.918Z" style="fill-opacity:0.18;"/><path d="M268.674,254.317c1.659,1.223 3.263,2.519 4.808,3.884c-1.674,-1.216 -3.278,-2.513 -4.808,-3.884Zm-0,0c1.659,1.223 3.263,2.519 4.808,3.884c-1.674,-1.216 -3.278,-2.513 -4.808,-3.884Z" style="fill-opacity:0.18;"/><path d="M219.908,173.023c0.293,0.193 0.584,0.389 0.875,0.586c-0.294,-0.194 -0.584,-0.389 -0.875,-0.586Zm-95.456,30.068c-0.797,-0.723 -1.517,-1.533 -2.147,-2.414c0.732,0.79 1.447,1.594 2.147,2.414Z" style="fill-opacity:0.18;"/><path d="M122.305,200.677c0.732,0.79 1.447,1.594 2.147,2.414c-0.797,-0.723 -1.517,-1.533 -2.147,-2.414Z" style="fill-opacity:0.18;"/><path d="M220.783,173.609c-0.294,-0.194 -0.584,-0.389 -0.875,-0.586c0.293,0.193 0.584,0.389 0.875,0.586Zm22.653,10.479c-0.262,-0.073 -0.525,-0.147 -0.787,-0.222c0.266,0.065 0.528,0.139 0.787,0.222Z" style="fill-opacity:0.18;"/><path d="M242.649,183.866c0.266,0.065 0.528,0.139 0.787,0.222c-0.262,-0.073 -0.525,-0.147 -0.787,-0.222Z" style="fill-opacity:0.18;"/><path d="M124.452,203.091c-0.797,-0.723 -1.517,-1.533 -2.147,-2.414c0.732,0.79 1.447,1.594 2.147,2.414Z" style="fill-opacity:0.18;"/><path d="M331.93,429.862c-2.122,1.318 -4.428,2.382 -6.873,3.149c2.325,-0.986 4.617,-2.037 6.873,-3.149Zm-33.59,-47.16c0.981,-0.699 2.006,-1.339 3.074,-1.918c-1.012,0.659 -2.036,1.298 -3.074,1.918Zm0,-0c0.981,-0.699 2.006,-1.339 3.074,-1.918c-1.012,0.659 -2.036,1.298 -3.074,1.918Z" style="fill-opacity:0.18;"/><path d="M331.93,429.862c-2.122,1.318 -4.428,2.382 -6.873,3.149c2.325,-0.986 4.617,-2.037 6.873,-3.149Zm-33.59,-47.16c0.981,-0.699 2.006,-1.339 3.074,-1.918c-1.012,0.659 -2.036,1.298 -3.074,1.918Zm33.59,47.16c-2.122,1.318 -4.428,2.382 -6.873,3.149c2.325,-0.986 4.617,-2.037 6.873,-3.149Zm-33.59,-47.16c0.981,-0.699 2.006,-1.339 3.074,-1.918c-1.012,0.659 -2.036,1.298 -3.074,1.918Z" style="fill-opacity:0.18;"/><path d="M327.511,190.318c-0.333,-0.142 -0.665,-0.29 -0.994,-0.44c0.333,0.145 0.663,0.292 0.994,0.44Zm36.795,-3.79c-0.389,0.27 -0.783,0.533 -1.182,0.789c0.39,-0.268 0.784,-0.532 1.182,-0.789Z" style="fill-opacity:0.16;"/><path d="M364.306,186.528c-0.389,0.27 -0.783,0.533 -1.182,0.789c0.39,-0.268 0.784,-0.532 1.182,-0.789Zm44.531,24.368c0.257,-0.135 0.515,-0.266 0.776,-0.395c-0.255,0.138 -0.513,0.27 -0.776,0.395Z" style="fill-opacity:0.16;"/><path d="M404.902,179.253c0.388,0.078 0.771,0.168 1.15,0.272c-0.382,-0.095 -0.766,-0.185 -1.15,-0.272Zm3.935,31.643c0.257,-0.135 0.515,-0.266 0.776,-0.395c-0.255,0.138 -0.513,0.27 -0.776,0.395Z" style="fill-opacity:0.16;"/><path d="M408.837,210.896c0.257,-0.135 0.515,-0.266 0.776,-0.395c-0.255,0.138 -0.513,0.27 -0.776,0.395Z" style="fill-opacity:0.16;"/></g><path d="M5.157,87.413c-3.241,-4.534 -5.157,-10.119 -5.157,-16.157c0,-8.098 3.442,-15.383 8.916,-20.405c0.12,-0.11 0.24,-0.218 0.361,-0.325c25.223,-22.673 58.318,-36.432 94.536,-36.432c28.609,-0 55.268,8.585 77.64,23.367c0.524,0.356 1.051,0.709 1.579,1.059c10.795,7.147 22.43,13.008 34.881,17.101c1.527,0.502 3.065,0.978 4.616,1.425c0.473,0.137 0.946,0.271 1.422,0.402c3.772,1.213 7.092,3.472 9.631,6.443c3.26,3.812 5.235,8.799 5.235,14.252c0,1.834 -0.223,3.615 -0.644,5.318c-1.062,4.299 -2.53,12.501 -2.914,18.834c-0.123,2.018 -0.185,4.049 -0.185,6.095c-0,3.521 0.184,7 0.542,10.432c1.368,13.096 5.287,25.483 11.275,36.704c5.77,10.811 13.461,20.539 22.645,28.772c2.763,2.478 5.662,4.82 8.685,7.016c26.475,23.398 43.236,57.953 43.236,96.472c-0,36.066 -14.696,68.658 -38.302,91.869c-5.092,5.008 -10.601,9.579 -16.466,13.655c-11.428,12.298 -19.108,28.082 -21.23,45.557c-0.393,3.235 -0.594,6.531 -0.594,9.871c-0,34.831 21.976,64.605 52.9,76.383c-6.431,0.52 -12.934,0.785 -19.5,0.785c-130.645,0 -236.947,-105.056 -238.962,-235.224c-0.02,-1.254 -0.029,-2.51 -0.029,-3.767c-0,-24.591 1.864,-50.938 2.966,-74.289c0.816,-4.854 1.396,-9.788 1.731,-14.793c0.222,-3.322 0.334,-6.673 0.334,-10.053c-0,-36.735 -13.308,-70.323 -35.267,-96.008c-1.265,-1.479 -2.558,-2.933 -3.881,-4.359Zm296.805,43.502c-12.591,-7.096 -21.136,-20.848 -21.136,-36.634c0,-23.043 18.207,-41.752 40.631,-41.752c1.941,0 3.85,0.141 5.718,0.411c1.897,0.395 3.785,0.814 5.664,1.252c14.258,3.337 28.025,7.949 41.176,13.713c0.595,0.274 1.193,0.539 1.795,0.795c1.418,0.605 2.86,1.163 4.326,1.674c7.116,2.48 14.763,3.828 22.721,3.828c13.725,0 26.52,-4.011 37.279,-10.922c0.72,-0.463 1.432,-0.938 2.133,-1.427c15.048,-9.778 32.996,-15.458 52.261,-15.458c7.236,-0 14.286,0.801 21.067,2.32c0.695,0.155 1.386,0.319 2.075,0.49c12.863,3.517 22.328,15.296 22.328,29.268c0,11.518 -6.431,21.544 -15.894,26.683c-0.471,0.232 -0.938,0.47 -1.402,0.714c-19.705,10.364 -33.156,31.041 -33.156,54.834c0,9.195 2.009,17.923 5.612,25.773c0.06,0.13 0.12,0.26 0.181,0.39c7.324,15.851 12.963,32.635 16.686,50.126c3.427,16.103 5.231,32.803 5.231,49.922c0,89.663 -49.482,167.859 -122.607,208.747c-3.564,1.993 -7.186,3.899 -10.862,5.711c-4.073,2.011 -8.211,3.908 -12.412,5.688c-5.204,1.631 -10.755,2.512 -16.518,2.512c-29.56,0 -53.557,-23.177 -53.557,-51.726c-0,-17.077 8.588,-32.235 21.819,-41.657c1.875,-1.118 3.725,-2.272 5.549,-3.463c14.762,-9.636 27.836,-21.611 38.689,-35.393c21.391,-27.168 34.146,-61.357 34.146,-98.482c-0,-26.342 -6.421,-51.205 -17.793,-73.133c-16.219,-31.269 -42.504,-56.564 -74.593,-71.649c-2.354,-1.107 -4.741,-2.159 -7.157,-3.155Z"/></svg>