<?xml version="1.0" encoding="UTF-8" standalone="no"?><!DOCTYPE svg PUBLIC "-//W3C//DTD SVG 1.1//EN" "http://www.w3.org/Graphics/SVG/1.1/DTD/svg11.dtd"><svg width="100%" height="100%" viewBox="0 0 540 540" version="1.1" xmlns="http://www.w3.org/2000/svg" xmlns:xlink="http://www.w3.org/1999/xlink" xml:space="preserve" xmlns:serif="http://www.serif.com/" style="fill-rule:evenodd;clip-rule:evenodd;stroke-linejoin:round;stroke-miterlimit:2;"><clipPath id="_clip1"><rect id="podemos-svg.svg" x="111.132" y="-0" width="317.737" height="540"/></clipPath><g clip-path="url(#_clip1)"><path d="M428.868,249.892l0,262.479c0,15.249 -12.38,27.629 -27.628,27.629l-262.48,0c-15.248,0 -27.628,-12.38 -27.628,-27.629l-0,-262.479c-0,-15.248 12.38,-27.629 27.628,-27.629l262.48,0c15.248,0 27.628,12.381 27.628,27.629Z"/><path d="M172.673,203.169l-0,-105.842c-0,-53.716 43.611,-97.327 97.327,-97.327c53.716,-0 97.327,43.611 97.327,97.327l-38.236,0c0,-29.416 -24.661,-53.298 -55.036,-53.298c-30.374,0 -55.036,23.882 -55.036,53.298l0,105.842l-46.346,-0Z"/></g></svg>