<?xml version="1.0" encoding="UTF-8" standalone="no"?><!DOCTYPE svg PUBLIC "-//W3C//DTD SVG 1.1//EN" "http://www.w3.org/Graphics/SVG/1.1/DTD/svg11.dtd"><svg width="100%" height="100%" viewBox="0 0 540 540" version="1.1" xmlns="http://www.w3.org/2000/svg" xmlns:xlink="http://www.w3.org/1999/xlink" xml:space="preserve" xmlns:serif="http://www.serif.com/" style="fill-rule:evenodd;clip-rule:evenodd;stroke-linejoin:round;stroke-miterlimit:2;"><path d="M218.32,540c-109.374,-23.718 -191.409,-121.142 -191.409,-237.574c-0,-62.565 23.687,-119.641 62.575,-162.742l128.834,123.695l-0,276.621Zm103.36,-276.621l128.834,-123.695c38.888,43.101 62.575,100.177 62.575,162.742c0,116.432 -82.035,213.856 -191.409,237.574l0,-276.621Zm-51.68,-263.379c57.681,0 104.511,46.83 104.511,104.511c0,57.682 -46.83,104.512 -104.511,104.512c-57.681,-0 -104.511,-46.83 -104.511,-104.512c-0,-57.681 46.83,-104.511 104.511,-104.511Z"/></svg>