<?xml version="1.0" encoding="UTF-8" standalone="no"?><!DOCTYPE svg PUBLIC "-//W3C//DTD SVG 1.1//EN" "http://www.w3.org/Graphics/SVG/1.1/DTD/svg11.dtd"><svg width="100%" height="100%" viewBox="0 0 540 540" version="1.1" xmlns="http://www.w3.org/2000/svg" xmlns:xlink="http://www.w3.org/1999/xlink" xml:space="preserve" xmlns:serif="http://www.serif.com/" style="fill-rule:evenodd;clip-rule:evenodd;stroke-linejoin:round;stroke-miterlimit:2;"><path d="M226.773,159.56c107.4,0 194.595,85.235 194.595,190.22c-0,104.986 -87.195,190.22 -194.595,190.22c-107.399,0 -194.594,-85.234 -194.594,-190.22c-0,-104.985 87.195,-190.22 194.594,-190.22Zm65.52,4.635c15.385,4.103 31.575,6.294 48.283,6.294c37.529,0 72.44,-11.052 101.505,-30.006c17.015,-11.094 32.027,-24.896 44.39,-40.773c13.812,36.849 21.35,76.646 21.35,118.149c0,119.351 -62.343,224.582 -156.906,286.244c50.778,-34.34 84.069,-91.671 84.069,-156.541c-0,-87.418 -60.455,-161.142 -142.691,-183.367Zm11.828,-77.684c-4.822,-13.721 -11.52,-27.062 -20.163,-39.683c-12.7,-18.547 -28.472,-33.893 -46.216,-45.823c33.69,13.614 71.971,15.106 107.307,3.015c0.446,-0.152 0.891,-0.307 1.335,-0.463c28.26,-9.489 60.622,0.316 78.02,25.724c12.688,18.527 14.495,41.086 6.885,60.445c-0.976,2.247 -2.001,4.476 -3.073,6.686c-5.059,9.549 -12.579,18.021 -22.361,24.42c-30.964,20.262 -72.93,12.138 -93.657,-18.132c-3.243,-4.735 -5.777,-9.736 -7.623,-14.879c-0.149,-0.438 -0.3,-0.874 -0.454,-1.31Z"/></svg>