<?xml version="1.0" encoding="UTF-8" standalone="no"?><!DOCTYPE svg PUBLIC "-//W3C//DTD SVG 1.1//EN" "http://www.w3.org/Graphics/SVG/1.1/DTD/svg11.dtd"><svg width="100%" height="100%" viewBox="0 0 540 540" version="1.1" xmlns="http://www.w3.org/2000/svg" xmlns:xlink="http://www.w3.org/1999/xlink" xml:space="preserve" xmlns:serif="http://www.serif.com/" style="fill-rule:evenodd;clip-rule:evenodd;stroke-linejoin:round;stroke-miterlimit:2;"><path d="M154.475,297.282c-13.006,5.266 -27.218,8.165 -42.101,8.165c-62.021,-0 -112.374,-50.353 -112.374,-112.374c0,-62.022 50.353,-112.375 112.374,-112.375c62.022,0 112.375,50.353 112.375,112.375c-0,11.326 -1.679,22.265 -4.803,32.578c5.991,-2.697 12.239,-4.927 18.696,-6.639c10.008,-2.653 20.519,-4.068 31.358,-4.068c10.839,0 21.35,1.415 31.358,4.068c6.457,1.712 12.705,3.942 18.696,6.639c-3.124,-10.313 -4.803,-21.252 -4.803,-32.578c0,-62.022 50.353,-112.375 112.375,-112.375c62.021,0 112.374,50.353 112.374,112.375c0,62.021 -50.353,112.374 -112.374,112.374c-14.883,-0 -29.095,-2.899 -42.101,-8.165c4.311,12.489 6.654,25.894 6.654,39.841c-0,67.432 -54.747,122.179 -122.179,122.179c-67.432,-0 -122.179,-54.747 -122.179,-122.179c0,-13.947 2.343,-27.352 6.654,-39.841Zm134.06,28.876l-37.07,0l18.535,21.929l18.535,-21.929Zm-0,44.382l-37.07,-0l0,21.406l37.07,0l-0,-21.406Z"/></svg>