<?xml version="1.0" encoding="UTF-8" standalone="no"?><!DOCTYPE svg PUBLIC "-//W3C//DTD SVG 1.1//EN" "http://www.w3.org/Graphics/SVG/1.1/DTD/svg11.dtd"><svg width="100%" height="100%" viewBox="0 0 540 540" version="1.1" xmlns="http://www.w3.org/2000/svg" xmlns:xlink="http://www.w3.org/1999/xlink" xml:space="preserve" xmlns:serif="http://www.serif.com/" style="fill-rule:evenodd;clip-rule:evenodd;stroke-linejoin:round;stroke-miterlimit:2;"><path d="M234.064,70.059c156.483,-5.174 305.247,-69.337 305.247,-69.337c0,-0 -34.974,185.864 -71.183,303.401c-38.034,123.456 -104.881,234.062 -234.064,234.062c-54.195,0 -129.594,-47.653 -161.346,-69.524c-5.39,-3.714 60.795,-76.342 95.173,-110.83c36.59,-36.706 124.366,-109.406 124.366,-109.406c-0,-0 -94.865,65.405 -135.233,98.114c-37.596,30.463 -104.312,102.911 -106.969,98.138c-15.671,-28.158 -50.055,-95.118 -50.055,-140.554c0,-129.185 104.951,-229.796 234.064,-234.064Z"/></svg>