<?xml version="1.0" encoding="UTF-8" standalone="no"?><!DOCTYPE svg PUBLIC "-//W3C//DTD SVG 1.1//EN" "http://www.w3.org/Graphics/SVG/1.1/DTD/svg11.dtd"><svg width="100%" height="100%" viewBox="0 0 540 540" version="1.1" xmlns="http://www.w3.org/2000/svg" xmlns:xlink="http://www.w3.org/1999/xlink" xml:space="preserve" xmlns:serif="http://www.serif.com/" style="fill-rule:evenodd;clip-rule:evenodd;stroke-linejoin:round;stroke-miterlimit:2;"><path d="M225.393,71.414l-26.807,-26.807l44.607,-44.607l26.807,26.807l26.807,-26.807l44.607,44.607l-26.807,26.807l55.758,55.759l26.808,-26.807l44.606,44.606l-26.807,26.807l53.614,53.614l26.807,-26.807l44.607,44.607l-26.807,26.807l26.807,26.807l-44.607,44.607l-26.807,-26.807l-54.686,54.687l26.806,26.806l-44.606,44.606l-26.806,-26.806l-54.687,54.686l26.807,26.807l-44.607,44.607l-26.807,-26.807l-26.807,26.807l-44.607,-44.607l26.807,-26.807l-53.614,-53.614l-26.807,26.807l-44.606,-44.606l26.807,-26.808l-55.759,-55.758l-26.807,26.807l-44.607,-44.607l26.807,-26.807l-26.807,-26.807l44.607,-44.607l26.807,26.807l54.686,-54.687l-26.806,-26.806l44.606,-44.606l26.806,26.806l54.687,-54.686Zm-109.373,198.586l55.759,55.759l54.686,-54.687l-55.759,-55.758l-54.686,54.686Zm99.294,-99.294l55.758,55.759l54.687,-54.686l-55.759,-55.759l-54.686,54.686Zm100.365,100.366l53.615,53.614l54.686,-54.686l-53.615,-53.614l-54.686,54.686Zm-99.293,99.293l53.614,53.615l54.686,-54.686l-53.614,-53.615l-54.686,54.686Z"/></svg>