<?xml version="1.0" encoding="UTF-8" standalone="no"?><!DOCTYPE svg PUBLIC "-//W3C//DTD SVG 1.1//EN" "http://www.w3.org/Graphics/SVG/1.1/DTD/svg11.dtd"><svg width="100%" height="100%" viewBox="0 0 540 540" version="1.1" xmlns="http://www.w3.org/2000/svg" xmlns:xlink="http://www.w3.org/1999/xlink" xml:space="preserve" xmlns:serif="http://www.serif.com/" style="fill-rule:evenodd;clip-rule:evenodd;stroke-linejoin:round;stroke-miterlimit:2;"><clipPath id="_clip1"><rect id="solidariedade-svg.svg" x="81.211" y="0" width="377.578" height="540"/></clipPath><g clip-path="url(#_clip1)"><path d="M235.936,537.952l-154.725,-0l-0,-363.867l154.725,-0l-0,363.867Zm-6.36,-493.033c37.49,39.867 50.952,88.197 30.044,107.861c-20.908,19.661 -68.323,3.261 -105.813,-36.604c-37.49,-39.867 -50.952,-88.197 -30.044,-107.861c20.908,-19.661 68.323,-3.261 105.813,36.604Zm73.434,493.033l-0,-363.867l154.724,-0l0,363.867l-154.724,-0Zm6.359,-493.033c37.49,-39.865 84.905,-56.265 105.813,-36.604c20.908,19.664 7.446,67.994 -30.044,107.861c-37.49,39.865 -84.904,56.265 -105.812,36.604c-20.909,-19.664 -7.447,-67.994 30.043,-107.861Z"/></g></svg>